<svg id="Layer_2" data-name="Layer 2" xmlns="http://www.w3.org/2000/svg" viewBox="0 0 556.5 956"><defs><style>.cls-1{fill:#900d0d;}.cls-2{fill:#cf1b1b;}.cls-3,.cls-4,.cls-5{fill:#423144;}.cls-3{opacity:0.6;}.cls-4{opacity:0.8;}.cls-5{opacity:0.5;}</style></defs><title>[6b]cntowerbackground</title><circle class="cls-1" cx="375" cy="652.5" r="181.5"/><circle class="cls-2" cx="386" cy="632" r="140"/><g id="Layer_3" data-name="Layer 3"><path class="cls-3" d="M980.84,1238.81a60,60,0,0,0-37.12-33.53,32.23,32.23,0,0,0-52.41-19,59.86,59.86,0,0,0-99.67,22.18,32.26,32.26,0,0,0-22.84,35.78,59.87,59.87,0,0,0,80.51,88.59,32.23,32.23,0,0,0,36.5,7.5,32.25,32.25,0,0,0,57.72,8.18,59.87,59.87,0,1,0,37.33-109.69Z" transform="translate(-654 -443)"/><path class="cls-4" d="M951.28,579.84a39.72,39.72,0,0,0-24.56-22.18A21.32,21.32,0,0,0,892,545.08a39.6,39.6,0,0,0-65.94,14.68A21.34,21.34,0,0,0,811,583.43,39.6,39.6,0,0,0,864.26,642a21.32,21.32,0,0,0,24.14,5,21.33,21.33,0,0,0,38.18,5.41,39.61,39.61,0,1,0,24.69-72.57Z" transform="translate(-654 -443)"/></g><path class="cls-5" d="M928.38,498.82A47.65,47.65,0,0,0,910,502.5a29.84,29.84,0,0,0-43.4-21.19,47.78,47.78,0,0,0-66.43-1.1,42.27,42.27,0,0,0-84.24,5.07c0,.81,0,1.61.07,2.41a47.81,47.81,0,1,0-19.49,93.17,29.84,29.84,0,0,0,32.95,15.65,47.78,47.78,0,0,0,69.65-1.15,29.83,29.83,0,0,0,46.31-9.15,47.79,47.79,0,0,0,50.11-4.91,47.8,47.8,0,1,0,32.89-82.47Z" transform="translate(-654 -443)"/><path class="cls-4" d="M1020.19,1322.88a32.33,32.33,0,0,0-12.5,2.5A20.25,20.25,0,0,0,978.24,1311a32.42,32.42,0,0,0-45.08-.74,28.68,28.68,0,0,0-57.16,3.44c0,.55,0,1.09,0,1.64a32.44,32.44,0,1,0-13.23,63.22,20.25,20.25,0,0,0,22.36,10.62,32.42,32.42,0,0,0,47.26-.78,20.24,20.24,0,0,0,31.43-6.21,32.43,32.43,0,0,0,34-3.33,32.43,32.43,0,1,0,22.32-56Z" transform="translate(-654 -443)"/></svg>